<svg xmlns="http://www.w3.org/2000/svg" version="1.1" width="32px" height="32px" style="shape-rendering:geometricPrecision; text-rendering:geometricPrecision; image-rendering:optimizeQuality; fill-rule:evenodd; clip-rule:evenodd" xmlns:xlink="http://www.w3.org/1999/xlink">
<g><path style="opacity:0.986" fill="#1fde29" d="M 1.5,-0.5 C 10.8333,-0.5 20.1667,-0.5 29.5,-0.5C 29.8333,0.5 30.5,1.16667 31.5,1.5C 31.5,10.8333 31.5,20.1667 31.5,29.5C 30.5,29.8333 29.8333,30.5 29.5,31.5C 20.1667,31.5 10.8333,31.5 1.5,31.5C 1.16667,30.5 0.5,29.8333 -0.5,29.5C -0.5,20.1667 -0.5,10.8333 -0.5,1.5C 0.5,1.16667 1.16667,0.5 1.5,-0.5 Z M 11.5,9.5 C 12.7514,7.439 14.4181,7.10566 16.5,8.5C 15.286,10.7542 13.6194,11.0875 11.5,9.5 Z M 10.5,11.5 C 10.5,13.1667 10.5,14.8333 10.5,16.5C 12.4672,16.2606 14.3005,16.5939 16,17.5C 21.383,13.9894 24.0497,15.3228 24,21.5C 23.196,22.8045 22.0293,23.4712 20.5,23.5C 16.077,22.9922 11.7437,22.1588 7.5,21C 6.31017,17.1976 7.31017,14.031 10.5,11.5 Z"/></g>
</svg>
